<?xml version="1.0" encoding="UTF-8"?>
<svg version="1.1" viewBox="0 0 260 90" xmlns="http://www.w3.org/2000/svg">
 <g transform="translate(121.06 -355.94)" fill-rule="evenodd">
  <path d="m-101.48 400c-0.0431 8.1975 5.9678 13.084 15.56 10.862v-21.725c-9.7134-2.9581-15.519 3.0266-15.56 10.862m15.853-42.276h13.211v62.533c-12.663 2.0703-24.792 3.3834-33.468-1.4681-11.172-6.2462-12.07-26.096-3.2297-34.936 4.4822-4.4819 13.506-7.6372 23.193-5.5781v-19.67c-0.02531-0.41688-0.04875-0.83188 0.29344-0.88094"/>
  <path d="m-50.979 371.53h-13.211v-13.798h13.211v13.798z"/>
  <path d="m107.56 411.45c14.402 5.5969 15.996-25.779 1.4681-22.9-9.0219 1.7881-8.7322 20.077-1.4681 22.9m0.58718-33.762c10.998-1.1759 19.296 3.6775 22.606 11.156 5.6481 12.76-0.31062 27.402-9.3947 31.707-4.7081 2.2312-9.6381 2.4438-14.092 2.055-13.767-1.2006-22.449-15.231-17.615-30.827 0.75656-2.4409 1.6066-3.9341 2.0553-4.6972 2.9925-5.0881 8.0447-8.4969 16.44-9.3947"/>
  <path d="m-32.777 406.46c-3.6541 6.1409 5.5269 7.6122 11.449 5.8719v-9.1012c-4.5506 0.63532-9.7303 0.33969-11.449 3.2294m23.193 14.386c-10.913 0.62782-27.498 4.3453-33.468-2.9356-3.5075-4.2781-3.1303-12.438 0-16.441 4.0453-5.1725 12.876-6.3006 20.844-7.0459 0.72344-1.7812 0.23562-4.6794-0.58719-5.8722-7.2888-1.8566-14.531 1.0203-19.67 3.2294v-10.275c7.7619-3.5662 25.741-7.3212 31.12 0.88063 2.825 4.3078 1.7612 11.821 1.7612 18.496v19.964z"/>
  <path d="m36.802 421.44h-13.211v-17.028c0-5.6066 0.90688-12.716-2.0556-14.973-2.32-1.7688-7.8241-0.88125-11.156 0v32.001h-13.212v-40.808c13.505-3.5081 37.883-7.2694 39.634 9.6881 0.86344 8.3606-0.63969 20.904 0 31.12"/>
  <path d="m56.472 407.34c2.2231 3.5969 8.2431 4.9456 13.211 2.6422-0.27281-6.8709-0.36812-13.919-0.29344-21.138-11.418-3.0166-18.222 9.9159-12.918 18.496m33.175-27.89c-1.1759 3.5216-2.8969 6.4975-4.4038 9.6884-1.3616 0.305-2.5416-0.54125-3.2297 0-0.30125 14.311 3.0478 33.712-2.6422 44.037-3.4259 6.2169-9.7334 10.205-19.377 10.863-7.0247 0.47907-12.477-0.66875-17.615-2.6422v-12.331c6.0266 3.5188 21.255 6.3875 25.542-0.88094 1.2612-2.1384 1.1812-4.3488 1.7612-7.6331-2.76 0.145-5.4394 1.4231-8.8072 1.4681-13.846 0.18375-22.412-10.841-19.083-26.129 1.2875-5.9138 4.7525-10.675 9.395-13.505 9.6419-5.8766 24.463-5.4303 38.459-2.9356"/>
  <path d="m-50.979 378.51c-0.015 9.7284-0.0128 16.719-0.01375 28.538-0.56125 11.615-0.43062 20.864-4.6834 26.421-0.83875 1.0959-2.62 2.6947-4.1103 3.8169-1.2516 0.94218-3.6369 2.8528-4.9909 2.9359-1.365 0.0838-4.8719-1.895-6.4591-2.6425-2.0841-0.98156-4.0106-2.285-6.165-2.9356 5.0253-3.1141 9.7956-5.4488 11.743-11.743 1.6938-5.4744 1.4681-13.407 1.4681-21.138 0-7.6338 0.03406-16.509 0.03406-23.249l13.177-3e-3z"/>
 </g>
</svg>
